<?xml version="1.0" encoding="UTF-8" standalone="no"?>
<!DOCTYPE svg PUBLIC "-//W3C//DTD SVG 1.1//EN" "http://www.w3.org/Graphics/SVG/1.1/DTD/svg11.dtd">
<svg width="100%" height="100%" viewBox="0 0 2000 2000" version="1.1" xmlns="http://www.w3.org/2000/svg" xmlns:xlink="http://www.w3.org/1999/xlink" xml:space="preserve" xmlns:serif="http://www.serif.com/" style="fill-rule:evenodd;clip-rule:evenodd;stroke-linecap:round;stroke-linejoin:round;stroke-miterlimit:1.5;">
    <rect x="0" y="0" width="2000" height="2000"/>
    <g id="Main">
        <g transform="matrix(1.861347,0.771301,-0.771301,1.861347,-171.81876,-1542.833897)">
            <path d="M1020.429,476.744L1350.322,613.389L1486.968,943.282L1350.322,1273.174L1020.429,1409.82L690.537,1273.174L553.891,943.282L690.537,613.389L1020.429,476.744Z" style="fill:white;fill-opacity:0;stroke:white;stroke-width:24.13px;"/>
        </g>
        <g transform="matrix(0.998849,0,0,1,0.151422,-868.491104)">
            <path d="M1000,1000L1868.491,1868.491L1000,2736.982L131.509,1868.491L1000,1000Z" style="fill:white;fill-opacity:0;stroke:white;stroke-width:48.64px;"/>
        </g>
        <g transform="matrix(0.3772,0,0,0.3772,208.647754,647.654155)">
            <g transform="matrix(1,0,0,1,389.439,1117.978)">
                <path d="M36.351,0L36.351,-307.943L74.374,-307.943L74.374,-35.098L229.39,-35.098L229.39,0L36.351,0Z" style="fill:white;"/>
                <path d="M267.831,-242.343L267.831,-291.647L304.6,-291.647L304.6,-242.343L267.831,-242.343ZM267.831,0L267.831,-218.527L304.6,-218.527L304.6,0L267.831,0Z" style="fill:white;"/>
                <path d="M372.707,0L372.707,-218.527L409.476,-218.527L409.476,-179.25L447.499,-218.527L528.141,-218.527L566.582,-179.668L604.187,-218.527L684.828,-218.527L728.701,-174.654L728.701,0L691.931,0L691.931,-165.462L669.786,-189.278L613.797,-189.278L571.596,-146.659L571.596,0L534.826,0L535.244,-165.462L512.681,-189.278L457.109,-189.278L409.476,-140.81L409.476,0L372.707,0Z" style="fill:white;"/>
                <path d="M795.136,-242.343L795.136,-291.647L831.906,-291.647L831.906,-242.343L795.136,-242.343ZM795.136,0L795.136,-218.527L831.906,-218.527L831.906,0L795.136,0Z" style="fill:white;"/>
                <path d="M900.012,0L900.012,-218.527L936.782,-218.527L936.782,-179.25L974.804,-218.527L1055.446,-218.527L1098.901,-174.654L1098.901,0L1062.131,0L1062.131,-165.462L1039.986,-189.278L984.415,-189.278L936.782,-140.81L936.782,0L900.012,0Z" style="fill:white;"/>
                <path d="M1189.153,0L1145.698,-43.872L1145.698,-93.595L1189.153,-137.467L1300.296,-137.467L1300.296,-164.626L1277.733,-187.607L1174.111,-187.607L1174.111,-218.527L1293.611,-218.527L1337.066,-174.654L1337.066,0L1300.296,0L1300.296,-33.844L1266.452,0L1189.153,0ZM1205.448,-29.248L1257.259,-29.248L1300.296,-71.867L1300.296,-108.637L1205.448,-108.219L1182.467,-85.656L1182.467,-52.229L1205.448,-29.248Z" style="fill:white;"/>
            </g>
        </g>
        <g transform="matrix(0.3772,0,0,0.3772,1058.11743,655.950591)">
            <g transform="matrix(1,0,0,1,389.439,1117.978)">
                <path d="M34.262,-242.343L34.262,-291.647L71.032,-291.647L71.032,-242.343L34.262,-242.343ZM34.262,0L34.262,-218.527L71.032,-218.527L71.032,0L34.262,0Z" style="fill:white;"/>
                <path d="M139.138,0L139.138,-218.527L175.908,-218.527L175.908,-179.25L213.93,-218.527L294.572,-218.527L333.013,-179.668L370.618,-218.527L451.26,-218.527L495.132,-174.654L495.132,0L458.363,0L458.363,-165.462L436.218,-189.278L380.228,-189.278L338.027,-146.659L338.027,0L301.258,0L301.675,-165.462L279.112,-189.278L223.541,-189.278L175.908,-140.81L175.908,0L139.138,0Z" style="fill:white;"/>
                <path d="M561.568,-242.343L561.568,-291.647L598.337,-291.647L598.337,-242.343L561.568,-242.343ZM561.568,0L561.568,-218.527L598.337,-218.527L598.337,0L561.568,0Z" style="fill:white;"/>
                <path d="M707.391,0L668.951,-38.023L668.951,-189.278L645.97,-189.278L645.97,-218.527L669.786,-218.527L678.979,-274.516L705.72,-274.516L705.72,-218.527L752.099,-218.527L752.099,-189.278L705.72,-189.278L705.72,-50.976L725.358,-30.502L761.71,-30.502L761.71,0L707.391,0Z" style="fill:white;"/>
                <path d="M806.418,0L806.418,-30.502L922.157,-30.502L941.796,-50.558L941.796,-76.881L920.904,-97.773L834.413,-97.773L795.972,-135.378L795.972,-179.668L834.413,-218.527L957.673,-218.527L957.673,-187.607L851.961,-187.607L832.741,-168.805L832.741,-147.495L852.797,-127.439L940.124,-127.439L978.565,-89.834L978.565,-38.441L940.542,0L806.418,0Z" style="fill:white;"/>
            </g>
        </g>
        <g transform="matrix(-2.198843,0,0,2.198843,1031.434111,1159.756791)">
            <path d="M32.292,0L77.431,-255.903L97.222,-255.903L55.208,-18.403L189.583,-18.403L186.458,0L32.292,0Z" style="fill:white;"/>
        </g>
        <g transform="matrix(2.198843,0,0,2.198843,990.169311,1159.756791)">
            <path d="M32.292,0L77.431,-255.903L97.222,-255.903L55.208,-18.403L189.583,-18.403L186.458,0L32.292,0Z" style="fill:white;"/>
        </g>
    </g>
</svg>
